<?xml version="1.0" encoding="UTF-8"?>
<svg id="_圖層_1" data-name="圖層_1" xmlns="http://www.w3.org/2000/svg" version="1.1" viewBox="0 0 90.71 109.13">
  <!-- Generator: Adobe Illustrator 30.1.0, SVG Export Plug-In . SVG Version: 2.1.1 Build 136)  -->
  <defs>
    <style>
      .st0 {
        fill: #128faa;
      }

      .st1 {
        fill: #fff;
      }

      .st2 {
        fill: #6959a4;
      }

      .st3 {
        fill: #523b8c;
      }
    </style>
  </defs>
  <path class="st3" d="M10.94.15C4.84.15-.11,5.1-.11,11.21v87.33c0,6.11,4.95,11.05,11.05,11.05h69c6.11,0,11.05-4.95,11.05-11.05V34.35L56.8.15H10.94Z"/>
  <g>
    <path class="st1" d="M16.51,95.6v-15.41h3.11v6.84l6.29-6.84h4.18l-5.8,6,6.12,9.41h-4.03l-4.24-7.23-2.52,2.58v4.66h-3.11Z"/>
    <path class="st1" d="M37.57,80.19h3.1v9.75c0,1.28-.11,2.26-.34,2.94-.3.9-.85,1.62-1.64,2.16-.79.54-1.84.81-3.13.81-1.52,0-2.69-.43-3.51-1.28s-1.23-2.1-1.24-3.75l2.93-.34c.04.88.16,1.51.39,1.87.34.55.85.83,1.54.83s1.18-.2,1.47-.59c.29-.4.43-1.22.43-2.47v-9.95Z"/>
    <path class="st1" d="M57.88,95.6h-3.38l-1.35-3.5h-6.16l-1.27,3.5h-3.3l6-15.41h3.29l6.17,15.41ZM52.15,89.5l-2.12-5.72-2.08,5.72h4.2Z"/>
    <path class="st1" d="M59.49,95.6v-15.41h4.66l2.8,10.51,2.76-10.51h4.67v15.41h-2.89v-12.13l-3.06,12.13h-3l-3.05-12.13v12.13h-2.89Z"/>
  </g>
  <g>
    <path class="st0" d="M40.55,57.77l4.11-4.14,3.59,3.55h8.56s0-36.98,0-36.98c1.99-1.97,3.8-3.95,6.07-5.89l.02,48.68-17.08.03-5.26-5.24Z"/>
    <polygon class="st0" points="29.21 63 29.21 38.17 35.02 38.15 35.07 48.83 52.47 31.47 52.49 39.74 35.05 57.18 35.03 62.99 29.21 63"/>
    <rect class="st0" x="29.19" y="28.24" width="5.88" height="5.84" transform="translate(-12.62 31.79) rotate(-44.92)"/>
  </g>
  <path class="st2" d="M90.99,34.35h-23.56c-5.87,0-10.63-4.76-10.63-10.63V.15l34.19,34.19Z"/>
</svg>
